<mxfile host="app.diagrams.net" modified="2023-05-24T15:23:58.156Z" agent="Mozilla/5.0 (Windows NT 10.0; Win64; x64) AppleWebKit/537.36 (KHTML, like Gecko) Chrome/113.0.0.0 Safari/537.36" etag="gDWNi9W0k_y4-4rfJjA1" version="21.3.3" type="github">
  <diagram name="第 1 页" id="ZDW71rIchksKYJLWWfzp">
    <mxGraphModel dx="1185" dy="610" grid="1" gridSize="10" guides="1" tooltips="1" connect="1" arrows="1" fold="1" page="1" pageScale="1" pageWidth="827" pageHeight="1169" math="0" shadow="0">
      <root>
        <mxCell id="0" />
        <mxCell id="1" parent="0" />
        <mxCell id="UyQQb7nO0WOSDgsdFY6E-3" value="" style="rounded=0;orthogonalLoop=1;jettySize=auto;html=1;" edge="1" parent="1" source="UyQQb7nO0WOSDgsdFY6E-1" target="UyQQb7nO0WOSDgsdFY6E-2">
          <mxGeometry relative="1" as="geometry" />
        </mxCell>
        <mxCell id="UyQQb7nO0WOSDgsdFY6E-1" value="普通用户" style="shape=umlActor;verticalLabelPosition=bottom;verticalAlign=top;html=1;outlineConnect=0;" vertex="1" parent="1">
          <mxGeometry x="160" y="220" width="30" height="60" as="geometry" />
        </mxCell>
        <mxCell id="UyQQb7nO0WOSDgsdFY6E-2" value="&lt;p style=&quot;line-height: 100%;&quot;&gt;项目管理&lt;/p&gt;" style="ellipse;whiteSpace=wrap;html=1;verticalAlign=top;" vertex="1" parent="1">
          <mxGeometry x="280" y="230" width="115" height="50" as="geometry" />
        </mxCell>
      </root>
    </mxGraphModel>
  </diagram>
</mxfile>
